# xmcd
#
# Track frame offsets:
#	150
#	14013
#	23263
#	33293
#	45318
#	57834
#	69507
#	78562
#	92927
#	100955
#	110085
#	120558
#	133791
#	145659
#	159199
#	171285
#	183662
#	197893
#	210841
#	223804
#
# Disc length: 3196 seconds
#
# Revision: 0
# Processed by: cddbd v1.5.2PL0 Copyright (c) Steve Scherf et al.
# Submitted via: EasyCDDAExtractor 16.0.1.1
#
DISCID=150c7a14
DTITLE=Johnny Cash - Understand Your Man and A Thing Called Love
DYEAR=1971
DGENRE=Country
TTITLE0=Orange Blossom Special
TTITLE1=A Certain Kinda Hurtin'
TTITLE2=Time And Time Again
TTITLE3=Still In Town
TTITLE4=Understand Your Man
TTITLE5=I'd Still Be There
TTITLE6=I Want To Go Home
TTITLE7=Sing A Traveling Song
TTITLE8=I Got Stripes
TTITLE9=A Little At A Time
TTITLE10=Kate
TTITLE11=Melva's Wine
TTITLE12=A Thing Called Love
TTITLE13=I Promise You
TTITLE14=Papa Was A Good Man
TTITLE15=Tear Stained Letter
TTITLE16=Mississippi Sand
TTITLE17=Daddy
TTITLE18=Arkansas Lovin' Man
TTITLE19=The Miracle Man
EXTD=
EXTT0=
EXTT1=
EXTT2=
EXTT3=
EXTT4=
EXTT5=
EXTT6=
EXTT7=
EXTT8=
EXTT9=
EXTT10=
EXTT11=
EXTT12=
EXTT13=
EXTT14=
EXTT15=
EXTT16=
EXTT17=
EXTT18=
EXTT19=
PLAYORDER=
